<svg width="24" height="18" viewBox="0 0 24 18" fill="none" xmlns="http://www.w3.org/2000/svg">
<path fill-rule="evenodd" clip-rule="evenodd" d="M23.5194 3.15546C23.3875 2.66565 23.1334 2.21738 22.7808 1.8527C22.4333 1.49292 21.9976 1.23036 21.5171 1.09113C19.7234 0.595967 12.5059 0.595967 12.5059 0.595967C12.5059 0.595967 5.30653 0.584809 3.49467 1.09113C3.01419 1.23036 2.57852 1.49292 2.23096 1.8527C1.87839 2.21738 1.62426 2.66565 1.4924 3.15546C1.15228 5.04937 0.984681 6.97024 0.991665 8.89444C0.985969 10.813 1.15363 12.727 1.4926 14.6143C1.62489 15.1029 1.87893 15.5501 2.23096 15.9139C2.57852 16.2736 3.01419 16.5362 3.49467 16.6754C5.28631 17.172 12.5059 17.172 12.5059 17.172C12.5059 17.172 19.7045 17.172 21.5171 16.6754C21.9976 16.5362 22.4332 16.2736 22.7808 15.9139C23.1334 15.5492 23.3875 15.1009 23.5194 14.6111C23.8512 12.7232 24.0118 10.8092 23.9992 8.89236C24.013 6.96994 23.8524 5.04977 23.5195 3.15589L23.5194 3.15546ZM10.2023 12.4407V5.32717L16.2098 8.88814L10.2023 12.4407Z" fill="#CDCDCD"/>
</svg>
